<svg xmlns="http://www.w3.org/2000/svg" viewBox="185 408 210 200">
  <path fill="#f77f01" d="M387.020630,446.159607 C387.353027,448.673950 387.978088,450.749176 387.983917,452.826080 C388.054504,477.988983 388.059143,503.152191 388.027802,528.315247 C388.007782,544.396912 382.074036,557.966919 370.983337,569.599365 C357.088348,584.173035 339.931213,591.809265 320.374969,595.167236 C292.079224,600.025757 264.938263,595.949951 238.599350,585.261963 C223.687927,579.211121 208.894470,572.869202 194.060028,566.629578 C193.255524,566.291199 192.563278,565.686035 191.818787,565.205017 C191.902527,564.756653 191.986282,564.308289 192.070023,563.859924 C196.609756,564.214539 201.232147,564.149048 205.669846,565.022217 C212.290543,566.324768 219.509293,567.016235 225.166290,570.252686 C235.112778,575.943237 246.104843,577.674744 256.640106,581.086853 C268.144989,584.812988 279.958588,586.512695 292.113068,587.081848 C307.574310,587.805908 322.558075,586.416077 337.012756,580.894531 C357.806732,572.951294 373.208527,559.726318 378.428894,537.054871 C379.303101,533.258240 379.900055,529.305542 379.923767,525.420654 C380.061218,502.924713 380.095459,480.426788 379.952240,457.930878 C379.842560,440.705383 370.991608,428.764526 354.529114,424.351990 C353.120941,423.974548 351.559875,424.105408 350.069794,424.104736 C322.240387,424.092224 294.401978,424.526093 266.584808,423.942596 C248.354065,423.560211 236.029602,436.467377 235.943542,453.223938 C235.864319,468.646729 235.114731,484.066528 235.071960,499.488831 C235.042175,510.225952 235.545639,520.973572 236.114670,531.700439 C236.567032,540.228210 244.526138,552.757935 257.422058,554.861328 C260.634857,555.385437 263.902130,555.840515 267.146973,555.858704 C284.477325,555.955872 301.810516,555.746704 319.138580,555.966675 C328.745667,556.088623 337.470337,553.380859 345.556519,548.616150 C347.792419,547.298584 349.220001,544.525879 350.862000,542.305115 C352.875580,539.581726 355.264496,539.288086 357.955200,541.012085 C360.701538,542.771851 359.885620,545.032410 358.451233,547.147339 C352.449707,555.996460 344.059967,561.586243 333.779388,563.971802 C329.207214,565.032715 324.327545,565.021729 319.584808,565.049744 C300.754822,565.160950 281.923187,565.185669 263.093231,565.068848 C245.967834,564.962646 230.232468,551.722595 228.027954,534.194580 C227.290222,528.328735 227.023300,522.372314 226.989548,516.454834 C226.865021,494.625336 226.572144,472.786194 227.098633,450.968964 C227.305115,442.412842 230.041092,434.505219 236.488327,427.681702 C245.304886,418.350647 255.252121,414.464630 268.046173,414.728760 C295.697144,415.299591 323.368042,414.909515 351.030792,414.902161 C363.428009,414.898834 372.873383,420.731689 379.741302,430.490326 C382.935120,435.028381 384.643707,440.611725 387.020630,446.159607 Z" />
  <path fill="#f77f01" d="M304.778259,506.412994 C300.579193,497.315857 293.434357,493.323303 282.675751,492.833466 C284.469238,491.038544 285.311066,489.412354 286.398132,489.227325 C299.535004,486.991608 305.184052,478.396423 306.310638,465.472961 C309.416962,471.487915 311.215668,477.995667 315.365753,482.160187 C319.555511,486.364441 326.077148,488.244873 331.848877,491.286591 C331.598175,491.553528 330.924164,492.925751 330.184204,492.962311 C316.345428,493.645538 311.211395,502.828491 307.888458,514.973877 C306.914551,512.232910 305.940643,509.492004 304.778259,506.412994 Z" />
</svg>
